# xmcd
#
# Track frame offsets: 
#        182
#        19897
#        42640
#        58440
#        78027
#        91130
#        114732
#        132580
#        150332
#        168530
#
# Disc length: 2451 seconds
#
# Revision: 0
# Processed by: cddbd v1.5.2PL0 Copyright (c) Steve Scherf et al.
# Submitted via: ExactAudioCopyFreeDBPlugin 1.0
#
DISCID=8209910a
DTITLE=Beyond - 大地
DYEAR=1900
DGENRE=Rock and Roll
TTITLE0=大地
TTITLE1=漆黑的空間
TTITLE2=短暫的溫柔
TTITLE3=你知道我的迷惘
TTITLE4=送給不懂環保的人
TTITLE5=不需要太懂
TTITLE6=九十年代的憂傷
TTITLE7=破壞遊戲的孩子
TTITLE8=和自己的心比賽
TTITLE9=今天有我
EXTD=
EXTT0=
EXTT1=
EXTT2=
EXTT3=
EXTT4=
EXTT5=
EXTT6=
EXTT7=
EXTT8=
EXTT9=
PLAYORDER=
